<?xml version="1.0" encoding="utf-8"?>
<!-- Generator: Adobe Illustrator 27.8.1, SVG Export Plug-In . SVG Version: 6.00 Build 0)  -->
<svg version="1.1" xmlns="http://www.w3.org/2000/svg" xmlns:xlink="http://www.w3.org/1999/xlink" x="0px" y="0px"
	 viewBox="0 0 32 32" style="enable-background:new 0 0 32 32;" xml:space="preserve">
<style type="text/css">
	.st0{fill:#0058AA;}
	.st1{fill:#FFFFFF;}
</style>
<g id="Layer_2">
	<rect class="st0" width="32" height="32"/>
</g>
<g id="Layer_1">
	<path class="st1" d="M24,15c0,0.6-0.4,1-1,1v3.5c0,0.8-0.4,1.5-1,2v2c0,0.3-0.2,0.5-0.5,0.5h-2c-0.3,0-0.5-0.2-0.5-0.5V22h-6v1.5
		c0,0.3-0.2,0.5-0.5,0.5h-2c-0.3,0-0.5-0.2-0.5-0.5v-2c-0.6-0.5-1-1.2-1-2V16c-0.6,0-1-0.4-1-1v-2c0-0.6,0.4-1,1-1v-1.4
		c0-1.2,0.8-2.2,2.1-2.4C12.7,8.1,14.4,8,16,8c2.1,0,3.8,0.1,4.9,0.3c1.2,0.1,2.1,1.2,2.1,2.4V12c0.6,0,1,0.4,1,1V15z M11.6,11.2
		c1.5-0.1,3-0.2,4.4-0.2c1.8,0,3.4,0.1,4.4,0.2c0.3,0,0.5-0.2,0.5-0.5c0-0.3-0.2-0.5-0.4-0.5C19,10.1,17.5,10,16,10
		c-1.9,0-3.4,0.1-4.6,0.2c-0.3,0-0.5,0.3-0.5,0.5S11.2,11.2,11.6,11.2C11.5,11.2,11.5,11.2,11.6,11.2z M16,12
		c-1.9,0-3.4,0.1-4.6,0.2c-0.3,0-0.4,0.2-0.4,0.5v3.6c0,0.3,0.2,0.5,0.4,0.5c1.1,0.1,2.7,0.2,4.6,0.2s3.4-0.1,4.6-0.2
		c0.3,0,0.4-0.2,0.4-0.5v-3.6c0-0.3-0.2-0.5-0.4-0.5C19,12.1,17.5,12,16,12z M13,19c0-0.6-0.4-1-1-1s-1,0.4-1,1s0.4,1,1,1
		S13,19.6,13,19z M21,19c0-0.6-0.4-1-1-1s-1,0.4-1,1s0.4,1,1,1S21,19.6,21,19z M14,19c0,0.6,0.4,1,1,1h2c0.6,0,1-0.4,1-1s-0.4-1-1-1
		h-2C14.4,18,14,18.4,14,19z"/>
</g>
</svg>
